<svg id="whiteFull" xmlns="http://www.w3.org/2000/svg" viewBox="0 0 433.83 121.62"><defs><style>.cls-1,.cls-4,.cls-5{fill:#fff;}.cls-1{stroke:#fff;}.cls-1,.cls-2,.cls-3{stroke-miterlimit:10;}.cls-2,.cls-3,.cls-7{fill:#ff5151;}.cls-2,.cls-3{stroke:#ff5151;}.cls-3{stroke-width:2px;}.cls-4{font-size:24px;font-family:Noteworthy-Bold, Noteworthy;font-weight:700;}.cls-5{font-size:72px;font-family:S2G-Sea-font, S2G Sea font;}.cls-6{fill:#333;}.cls-6,.cls-8{font-size:21px;}</style></defs><title>foundationLogo</title><path class="cls-1" d="M121.95,178.73c-.25.27,2.85,2.61,5.9,7.87a25.34,25.34,0,0,1,3.15,7.87,15.57,15.57,0,0,1,.39,5.12c-.23,2.17-.83,2.76-1.57,5.9a17,17,0,0,0-.79,5.12c.23,3,1.91,5.29,3.54,7.48,1.09,1.46,2.8,3.43,3.94,4.72,1.89,2.17,2.53,2.76,2.36,3.54-.21,1-1.43,1.13-5.12,3.15-2.76,1.51-3,2-3.15,2.36-.48,1.74,2,2.94,1.57,4.72s-3.08,1.82-3.15,3.15,2.92,1.92,3.15,3.54-4.18,2.28-4.33,4.33c-.1,1.42,1.86,1.76,2.76,4.33a6,6,0,0,1,0,4.33c-1.3,2.51-5.5,2.64-9.05,2.76-4.72.15-6.26-.79-11-.79-3.57,0-5.39,0-7.48.79-.65.25-3.49,1.41-6.89,5.71-4.6,5.82-7.62,16.09-7.09,16.34s3.79-8.11,9.25-13.78a15.08,15.08,0,0,1,5.71-4.13c1.08-.41,2.45-.75,5.9-.79,5.09-.06,6,.64,10.82.79,5.63.18,8.26-.64,9.64-1.18,3.14-1.21,4.08-2.58,4.33-3a7.05,7.05,0,0,0,.59-6.49c-1.32-2.93-4.67-3.73-4.33-4.92.14-.49.71-.4,2.16-1.38,1.29-.87,2.27-1.53,2.36-2.36.18-1.68-3.47-2.62-3.35-4.13.09-1.12,2.88-.83,3.35-2.16.59-1.7-3.18-3.82-2.56-5.31.2-.47.63-.41,3-1.18,3.52-1.16,4.45-1.91,4.92-2.36a3.59,3.59,0,0,0,1.38-2c.23-1.5-1.32-2.4-4.13-5.51a36.91,36.91,0,0,1-4.33-5.71A12.15,12.15,0,0,1,132,212c-.57-3.05,1.66-4.43,2.76-8.86a18.13,18.13,0,0,0,.39-6.3,20.61,20.61,0,0,0-3.74-9.64C127.6,181.51,122.26,178.39,121.95,178.73Z" transform="translate(-38.67 -163.73)"/><path class="cls-2" d="M118.79,174.86c-5.29,2.1-8.58,3-10.89,3.85a37.45,37.45,0,0,0-9.32,4.62,43.84,43.84,0,0,0-12.86,13.86c-5.26,8.14-6.5,15.74-7.35,21.3a90.94,90.94,0,0,0-1,20.53c.16,3.68.4,8.85,1.31,15.65,1.46,10.94,3,17.17,5.51,22.58.42.89,2.12,4.21,1.84,4.49-1.57,1.54-5.14-4-7.09-6.8-1.13-1.61-5-7.8-8.1-20.79-1.76-7.24-3.09-14.1-3.68-18.22a110.26,110.26,0,0,1-1.26-15.49c0-5,.32-7.17.7-11.57a66.33,66.33,0,0,1,3.94-15.79A44.71,44.71,0,0,1,78.37,179,35.42,35.42,0,0,1,97,166.9a43.75,43.75,0,0,1,10.23-1.67,28.16,28.16,0,0,1,7.61.51,12.15,12.15,0,0,1,5.64,2.69c.58.51,2.08,2.2,1.71,3.85C121.91,173.57,120.39,174.22,118.79,174.86Z" transform="translate(-38.67 -163.73)"/><path class="cls-3" d="M98.18,211.39c.22.42,1.33-.22,9.92-1.81,4.08-.76,5.31-.89,6.87-.84,3.61.11,5.33,1.06,5.7.44.59-1-2.47-5.33-6.63-6.49C106.32,200.54,97.5,210.09,98.18,211.39Z" transform="translate(-38.67 -163.73)"/><path class="cls-1" d="M92.21,164.38c.36.3-3.74,1.36-8.34,3.73a41.42,41.42,0,0,0-4.49,2.9c-4.25,2.92-6.84,6.78-9,9.6A50.25,50.25,0,0,0,65,190.49,61.25,61.25,0,0,0,60.41,208,77.31,77.31,0,0,0,60,219.91c.25,4.63.3,7.27.78,10.65,1,7.25,2.31,12.81,2.91,15.29,1.46,6,3,10.71,3.87,13.42a75.24,75.24,0,0,0,5.11,12.32c2.23,4.22,6.64,8.51,6.33,8.83s-4.4-2.77-7.41-6-4.92-6.47-7.91-12.87c-1.45-3.1-2.51-6.2-4.09-10.61a103.88,103.88,0,0,1-4.06-15.72,96.49,96.49,0,0,1-1.77-16,71.85,71.85,0,0,1,.66-13.73,64.83,64.83,0,0,1,3.54-13.85,49.79,49.79,0,0,1,6.4-11.19,51.42,51.42,0,0,1,6.15-7.08,43.12,43.12,0,0,1,4.41-3.8,27.46,27.46,0,0,1,7.38-3.67C87.44,164.23,91.77,164,92.21,164.38Z" transform="translate(-38.67 -163.73)"/><path class="cls-1" d="M58.79,179c.19,0-.57,1-.66,1.13-1.13,1.55-2.24,3.92-3.68,6.51a45,45,0,0,0-4.46,12A64.31,64.31,0,0,0,48.46,208,77.25,77.25,0,0,0,48,220.3a78.83,78.83,0,0,0,1.35,12.55,112.05,112.05,0,0,0,4,14.93c2,5.58,3.8,10,5.14,12.91a73.73,73.73,0,0,0,5,9.07c1.77,2.84,5.07,6.88,4.82,7.13s-6.52-4.14-9.15-7.35a74.14,74.14,0,0,1-6-7.79A86,86,0,0,1,48,252.33a90,90,0,0,1-5.41-14,77.79,77.79,0,0,1-3-14.35A59.31,59.31,0,0,1,39.8,208a45.72,45.72,0,0,1,3.06-12.15,34.55,34.55,0,0,1,7.48-11.25C53.13,181.86,56.47,179,58.79,179Z" transform="translate(-38.67 -163.73)"/><text class="cls-4" transform="translate(122.83 111.18)"><tspan xml:space="preserve">F i n d  Y o u r  F o u n d a t i o n</tspan></text><text class="cls-5" transform="translate(114.33 76.16)">紅<tspan class="cls-6" x="72" y="0"> </tspan><tspan class="cls-7" x="82.5" y="0">粉</tspan><tspan class="cls-6" x="154.5" y="0"> </tspan><tspan x="165" y="0">知</tspan><tspan class="cls-8" x="237" y="0"> </tspan><tspan x="247.5" y="0">己</tspan></text></svg>